<?xml version="1.0" encoding="iso-8859-1"?>
<!-- Uploaded to: SVG Repo, www.svgrepo.com, Generator: SVG Repo Mixer Tools -->
<svg version="1.1" id="Layer_1" xmlns="http://www.w3.org/2000/svg" xmlns:xlink="http://www.w3.org/1999/xlink" 
	 viewBox="0 0 512 512" xml:space="preserve">
<path style="fill:#FFFFFF;" d="M326.639,209.459L212.309,95.128L97.978,209.459H23.224v233.058h386.964V209.459H326.639z"/>
<rect x="159.266" y="285.864" style="fill:#B3D8F4;" width="114.88" height="156.655"/>
<polygon style="fill:#3D9AE2;" points="7.833,55.552 7.833,209.459 97.978,209.459 212.309,95.128 326.639,209.459 425.579,209.459 
	425.579,55.552 "/>
<g>
	<polygon style="fill:#FFFFFF;" points="95.78,80.037 43.011,127.967 43.011,24.771 95.78,24.771 	"/>
	<rect x="97.794" y="99.027" style="fill:#FFFFFF;" width="15.665" height="15.665"/>
	<rect x="379.439" y="150.326" style="fill:#FFFFFF;" width="15.665" height="15.665"/>
	<rect x="342.886" y="150.326" style="fill:#FFFFFF;" width="15.665" height="15.665"/>
</g>
<rect x="369.444" y="409.099" style="fill:#3D9AE2;" width="134.723" height="78.129"/>
<path d="M281.979,278.03H151.433v156.657H31.059V217.292h70.163l111.086-111.086l111.087,111.086h78.957v104.081h15.665V217.292
	h15.394V47.719H103.613V16.939H35.179V47.72H0v169.573h15.394v233.061h333.163v-15.665h-66.578V278.03z M94.733,201.626H15.665
	v-35.638h114.707L94.733,201.626z M294.245,165.988h27.754v-15.665h-43.419l-35.634-35.634h174.801v86.937h-87.862L294.245,165.988z
	 M50.845,32.604h37.102V76.57l-37.102,33.702C50.845,110.271,50.845,32.604,50.845,32.604z M35.179,63.385v82.278l68.433-62.16
	V63.385h314.134v35.639H227.28l-14.972-14.972l-14.972,14.972h-62.989v15.665h47.323l-35.634,35.634H15.665V63.385H35.179z
	 M167.098,293.695h99.215v140.991h-99.215V293.695z"/>
<path d="M496.857,401.267v-66.839H376.755v53.586h15.665v-37.921h88.771v51.174h-119.58v93.794H512v-93.794H496.857z
	 M496.335,479.396H377.277v-62.463h119.058V479.396z"/>
</svg>